# xmcd
#
# Track frame offsets:
# 150
# 17955
# 31145
# 48705
# 64090
# 82177
# 100765
# 112375
# 129992
# 148997
# 164500
# 181065
# 196895
# 213900
#
# Disc length: 3057 seconds
#
#
# Revision: 1
# Processed by: cddbd v1.5.2PL0 Copyright (c) Steve Scherf et al.
# Submitted via: FreeRIP 2.95 
#
DISCID=ce0bef0e
DTITLE=Barbra Zinger - Country´N Road
DYEAR=2003
DGENRE=Country
TTITLE0=Breathe
TTITLE1=Take Me Home Country Roads
TTITLE2=From This Moment On
TTITLE3=God Blessed Texas
TTITLE4=How Do I Live
TTITLE5=I Swear
TTITLE6=My Baby
TTITLE7=Just When I Needed You Most
TTITLE8=You´ve Got A Friend
TTITLE9=Love Gets Me Everytime
TTITLE10=If Tomorrow Never Comes
TTITLE11=You´re Stilll The One
TTITLE12=We´re All Alone
TTITLE13=Standing Outside The Fire
EXTD=YEAR: 2003 ID3G: 2
EXTT0=
EXTT1=
EXTT2=
EXTT3=
EXTT4=
EXTT5=
EXTT6=
EXTT7=
EXTT8=
EXTT9=
EXTT10=
EXTT11=
EXTT12=
EXTT13=
PLAYORDER=
